<svg xmlns="http://www.w3.org/2000/svg" xmlns:xlink="http://www.w3.org/1999/xlink" width="579.392" height="110.749" viewBox="0 0 543.17969 103.82757"><defs><linearGradient id="a"><stop offset="0"/><stop offset="1" stop-opacity="0"/></linearGradient><linearGradient xlink:href="#a" id="b" x1="72.782" y1="18.914" x2="414.992" y2="-23.224" gradientUnits="userSpaceOnUse" gradientTransform="translate(-260.833 -59.86) scale(3.53493)"/></defs><text style="line-height:1.25" x="-1.296" y="92.76" transform="scale(.96634 1.03483)" font-weight="400" font-size="132.56" font-family="sans-serif" letter-spacing="0" word-spacing="0" fill="url(#b)" stroke-width="3.314"><tspan x="-1.296" y="92.76" style="-inkscape-font-specification:'Brush Script MT, Italic';font-variant-ligatures:normal;font-variant-caps:normal;font-variant-numeric:normal;font-feature-settings:normal;text-align:start" font-style="italic" font-family="Brush Script MT">ScooterOk</tspan></text><path d="M35.194 42.589c-5.907-.662-7.79-1.301-8.323-2.827-.823-2.351-1.138-2.335 10.811-.553 11.357 1.694 30.053 1.886 38.802.4 7.088-1.205 9.817-3.774 6.79-6.391-2.168-1.873-4.453-2.164-31.596-4.022C34.902 28.048 26.47 25.48 26.47 21.52c0-3.533 4.818-5.76 16.101-7.444 9.301-1.388 19.85-1.697 31.607-.924 5.313.35 6.815.82 6.815 2.133 0 1.512-.573 1.613-5.594.985-16.583-2.072-38.024.357-38.024 4.308 0 3.186 6.135 4.708 23.14 5.741 24.593 1.496 26.18 1.944 27.967 7.905 1.716 5.726.34 6.747-11.235 8.337-8.567 1.177-31.663 1.192-42.053.028z" fill="none"/></svg>