<svg xmlns="http://www.w3.org/2000/svg" viewBox="0 0 210 18.521" height="70" width="793.701" shape-rendering="crispEdges"><path d="M9.893 18.486c-.053-.026-.055-.032-.01-.035.03-.001.064.015.075.035.023.043.022.043-.065 0zm.608-.026a.231.231 0 0 1 .113 0c.031.01.006.018-.057.018-.062 0-.088-.008-.056-.018zm.696-.076a.894.894 0 0 1 .211 0c.058.009.01.015-.105.015-.116 0-.164-.006-.106-.015zm.507-.4a.383.383 0 0 1-.005-.14c.008-.065.016-.05.028.053.017.145.008.18-.023.087zm-2.272-.171c0-.093.006-.13.014-.085a.615.615 0 0 1 0 .169c-.008.046-.014.008-.014-.084zm2.098-.244c-.023-.03-.034-.056-.025-.056.01 0 .035.026.057.056.022.031.033.057.024.057-.009 0-.034-.026-.056-.057zm-.125-.318c0-.051.007-.072.016-.046a.166.166 0 0 1 0 .093c-.009.026-.016.005-.016-.047zm-10.117-.093c-.022-.031-.033-.056-.024-.056.009 0 .034.025.057.056.022.03.033.056.024.056-.01 0-.035-.025-.057-.056zm1.07.004c0-.008.043-.022.095-.03.053-.01.088-.003.08.014-.017.03-.175.045-.175.016zm6.756-.025c-.012-.022-.015-.048-.006-.058.008-.01.024.008.034.04.022.066.004.077-.028.018zm3.479-.06c.023-.012.051-.01.062.002.01.012-.008.021-.042.02-.038-.002-.046-.01-.02-.023zm-.967-.194a.923.923 0 0 0-.161-.128c-.043-.02-.043-.022 0-.023.026-.001.107.056.178.127.156.156.142.175-.017.024zm-2.58-.023a.205.205 0 0 1-.004-.103c.007-.027.021-.002.03.055.02.11.004.137-.026.048zm-8.036-.142l-.062-.084.073.071c.04.04.073.077.073.084 0 .03-.026.008-.084-.07zm12.596-.012c.002-.044.01-.053.02-.023.01.027.008.06-.003.072-.01.012-.018-.01-.017-.05zm-.008-.215c-.012-.068-.007-.093.013-.07.017.02.026.068.018.106-.009.052-.017.042-.03-.036zm-12.996-.2c.023-.011.05-.01.062.002.01.013-.009.022-.043.02-.038-.002-.045-.01-.02-.023zm-.09-.072c.003-.043.01-.052.02-.022.01.027.009.059-.002.071-.01.013-.018-.01-.017-.049zm7.94-.033c-.022-.03-.035-.072-.029-.092.006-.02.028.004.049.055.043.105.036.116-.02.037zm-7.94-.116c.003-.044.01-.053.02-.023.01.027.009.06-.002.072-.01.012-.018-.01-.017-.05zm4.587.027c-.01-.018.02-.024.063-.015.044.01.08.025.08.032 0 .03-.126.014-.143-.017zm3.023-.109c-.04-.059-.039-.06.011-.015.03.027.073.037.094.022.025-.017.03-.012.016.016-.032.06-.069.054-.12-.023zm-3.47.003c.024-.01.052-.01.063.003.01.012-.009.021-.043.02-.037-.003-.045-.011-.02-.023zm1.129-.056c.009-.018.03-.022.047-.01.042.03.037.042-.017.042-.026 0-.04-.015-.03-.032zm-2.913-.073c.022-.025.048-.037.058-.025.01.011-.008.032-.04.046-.046.02-.05.016-.018-.02zm.255-.04a.031.031 0 0 1 .047-.01c.043.03.038.042-.017.042-.026 0-.04-.014-.03-.032zm3.097-.03c0-.052.007-.073.016-.047a.166.166 0 0 1 0 .094c-.01.025-.016.004-.016-.047zm6.827.05c.023-.012.051-.01.062.002.01.012-.009.021-.043.02-.037-.002-.045-.01-.02-.023zm.162 0c.023-.012.051-.01.062.002.01.012-.008.021-.043.02-.037-.002-.045-.01-.02-.023zm-.35-.125c-.02-.041-.028-.075-.02-.075.01 0 .033.034.052.075.019.041.027.075.018.075-.009 0-.032-.034-.05-.075zM.607 15.68c-.03-.022-.034-.037-.01-.037.02 0 .047.016.058.037.025.046.014.046-.048 0zm2.875-.078c.012-.05.026-.068.035-.04a.107.107 0 0 1-.02.089c-.025.028-.029.013-.015-.05zm2.723.006c-.014-.062-.01-.077.014-.05a.107.107 0 0 1 .02.09c-.008.027-.023.01-.034-.04zm.695.01c-.021-.043-.036-.048-.053-.016-.028.051-.116-.015-.114-.086 0-.023.016-.012.035.025.027.053.044.059.08.024.035-.034.05-.03.065.017.026.078.073.076.157-.005.067-.066.067-.066.005.018-.073.1-.134.108-.175.024zm.448.047c0-.007.025-.037.056-.065.052-.047.053-.045.013.014-.043.062-.07.082-.07.052zm.245-.02c-.01-.018.01-.024.046-.014.076.023.086.049.019.049-.026 0-.055-.016-.065-.034zM.305 15.58c-.03-.035-.027-.192.005-.214.015-.01.02.029.013.088-.01.08.001.11.046.124.045.013.047.02.01.022-.03.003-.062-.006-.074-.02zm3.031-.069c.001-.062.008-.082.016-.046a.246.246 0 0 1 0 .112c-.01.026-.016-.004-.016-.066zm9.437-.073a.205.205 0 0 1-.004-.103c.008-.027.021-.002.03.055.02.11.004.137-.026.048zM.013 15.39c-.008-.016.019-.028.06-.028.041 0 .068.012.06.028-.009.015-.035.028-.06.028-.025 0-.052-.013-.06-.028zm3.603.002c.023-.01.051-.01.062.003.01.012-.009.021-.043.02-.038-.002-.045-.011-.02-.023zm2.712-.011c-.011-.022.002-.028.03-.015.057.025.067.052.02.052-.016 0-.039-.017-.05-.037zm.194.01a.207.207 0 0 0 .1-.077c.029-.046.041-.048.062-.009.017.031.014.04-.007.025-.02-.013-.043.001-.053.032-.01.03-.052.054-.093.051-.065-.004-.066-.006-.01-.023zm-.458-.106c-.011-.032-.012-.066-.004-.076.01-.01.024.015.034.057.02.09-.002.103-.03.019zM0 15.175c0-.083.006-.121.014-.085a.472.472 0 0 1 0 .15c-.007.046-.014.017-.014-.066zm12.773-.337c0-.247.006-.353.012-.236.006.118.006.32 0 .45-.006.129-.011.033-.012-.214zm-9.06.33c.023-.011.051-.01.062.002.01.013-.008.022-.043.02-.037-.002-.045-.01-.02-.022zm2.513-.033c-.01-.031-.012-.066-.003-.076.008-.01.023.016.033.058.02.089-.002.103-.03.018zm-2.286-.154c.014-.079.022-.088.032-.036.007.038-.002.085-.02.105-.02.024-.024 0-.012-.07zm.077.006c0-.061.008-.082.016-.046a.246.246 0 0 1-.001.113c-.009.025-.016-.005-.015-.067zm-3.912-.13c.033-.042.066-.075.075-.075.01 0-.01.033-.042.074-.033.042-.066.075-.075.075-.01 0 .01-.033.042-.075zm-.052-.346c.015-.104.02-.109.03-.034.006.049-.002.104-.018.123-.018.02-.023-.014-.012-.089zm12.708-.176c0-.02.015-.046.032-.058.019-.014.024.002.013.035-.022.065-.045.076-.045.023zm-12.548-.44c.014-.078.022-.087.031-.036.007.039-.001.086-.018.106-.02.023-.025-.001-.013-.07zm12.937.063c-.03-.022-.033-.036-.01-.037.021 0 .048.017.059.037.024.047.013.047-.049 0zm-12.861-.3c0-.05.007-.072.016-.046a.166.166 0 0 1 0 .094c-.009.025-.016.004-.016-.047zm13.026-.058c.001-.044.009-.053.02-.023.009.027.007.06-.003.072-.011.012-.019-.01-.017-.05zm.296-.166c0-.072.007-.101.015-.065a.354.354 0 0 1 0 .13c-.008.037-.015.007-.015-.065zm-13.306-.25c-.03-.033-.027-.153.003-.174.013-.01.024.031.024.091s-.001.109-.003.109a.166.166 0 0 1-.024-.025zm-.246-.412c-.001-.086.01-.165.023-.175.014-.01.02.044.014.12-.018.207-.034.231-.037.055zm13.612.004c.002-.043.01-.052.02-.022.01.027.008.059-.003.071-.01.013-.018-.01-.017-.049zm.03-.09c-.03-.022-.033-.037-.01-.037.021 0 .048.016.059.037.024.046.013.046-.049 0zM.284 12.202c0-.02.014-.046.032-.058.018-.014.023.001.012.035-.021.065-.044.076-.044.023zm13.724-.114c.009-.016.045-.038.081-.049.036-.01.059-.006.05.01-.009.016-.045.038-.081.049-.036.01-.058.006-.05-.01zM.351 11.99c.001-.043.01-.052.02-.022.009.027.008.06-.003.072-.01.012-.019-.01-.017-.05zm13.938-.165c0-.051.008-.072.017-.047a.166.166 0 0 1 0 .094c-.01.026-.017.005-.017-.047zm-13.858-.16c.013-.037.03-.058.04-.047.01.012 0 .042-.021.067-.032.037-.036.033-.019-.02zm.112-.228c0-.008.025-.037.057-.066.05-.046.052-.045.012.015-.043.062-.07.082-.07.05zm13.66-.173c-.01-.02.002-.027.031-.014.056.024.066.051.02.051-.017 0-.04-.016-.05-.037zM1.062 10.76a.404.404 0 0 1 .093-.094c.009 0-.018.042-.06.094a.404.404 0 0 1-.093.093c-.008 0 .018-.042.06-.093zm13.218-.031c-.012-.069-.008-.093.012-.07.018.02.026.068.02.106-.01.052-.019.042-.032-.036zm-13.083-.175c0-.052.007-.073.016-.047a.166.166 0 0 1 0 .094c-.009.025-.016.004-.016-.047zm12.926-.262c-.019-.041-.027-.075-.018-.075.009 0 .032.034.05.075.02.041.028.075.02.075-.01 0-.033-.034-.052-.075zM1.38 10.136c.034-.051.034-.066 0-.082-.029-.013-.03-.02-.004-.022.067-.005.077.061.018.114-.05.046-.052.045-.014-.01zM1.344 9.8c.012-.05.026-.067.035-.04a.107.107 0 0 1-.02.09c-.025.027-.029.013-.015-.05zm.058-.221c-.011-.02-.005-.038.014-.038s.034.017.034.038c0 .02-.006.037-.014.037s-.023-.017-.034-.037zm12.6-.337c0-.113.006-.16.014-.103a.953.953 0 0 1 0 .206c-.008.057-.014.01-.014-.103zm.06-.583c-.003-.042.036-.118.085-.168l.089-.09-.07.093a.544.544 0 0 0-.085.168c-.016.073-.016.073-.02-.003zm.88-.1c-.04-.06-.077-.178-.056-.178.009 0 .03.044.048.098.021.065.048.09.082.075.028-.013.041-.006.03.015-.027.05-.067.046-.104-.01zm-.664-.166c.024-.01.052-.01.062.003.011.013-.008.022-.042.02-.038-.002-.046-.01-.02-.023zm1.4.012c0-.008.025-.038.057-.066.051-.046.052-.045.012.014-.042.063-.07.083-.07.052zM1.733 8.273c-.014-.062-.01-.077.014-.049a.107.107 0 0 1 .02.089c-.008.028-.022.01-.034-.04zm12.894.031a.069.069 0 0 1 .054-.034c.02 0 .066-.03.103-.065.067-.065.067-.065.009.015-.058.078-.203.152-.166.084zM1.582 7.8c.002-.043.01-.052.02-.022.01.027.008.059-.003.071-.01.013-.018-.01-.017-.049zm14.68-.03c0-.007.025-.037.056-.065.051-.046.053-.045.012.014-.042.063-.069.082-.069.052zM1.53 7.67c-.012-.022-.014-.048-.006-.058.009-.01.024.008.035.04.022.066.003.078-.029.018zm15.112-.038c.011-.05.026-.068.034-.04a.107.107 0 0 1-.02.09c-.024.027-.029.012-.014-.05zm-15.317-.26c-.042-.04-.062-.074-.045-.074s.057.034.09.075c.073.095.054.094-.045-.001zm15.393.017c.001-.044.009-.053.02-.023.009.027.007.06-.003.072-.011.012-.019-.01-.017-.05zM1.216 6.992c.019-.022.053-.033.077-.024.024.01.01.027-.035.04-.054.016-.066.011-.042-.016zM4.4 6.81l-.114-.028.103-.005c.057-.002.113.012.124.033.011.02.015.035.01.032A1.974 1.974 0 0 0 4.4 6.81zm1.613-.028a3.42 3.42 0 0 1 .39 0c.1.008.01.014-.205.013-.214 0-.297-.006-.185-.013zm-2.016-.08c-.01-.017.02-.023.063-.013.044.01.08.024.08.032 0 .028-.126.013-.143-.018zm2.882-.005c.089-.044.14-.044.08 0a.181.181 0 0 1-.096.035c-.032-.002-.027-.013.016-.035zm.632-.224c.019-.041.042-.075.05-.075.01 0 .001.034-.018.075-.019.041-.042.075-.05.075-.01 0-.001-.034.018-.075zM.977 6.408a.985.985 0 0 0-.053-.14c-.03-.065-.029-.069.015-.027a.3.3 0 0 1 .066.14c.017.107-.002.125-.028.027zm6.688-.071a.11.11 0 0 1 .08 0c.023.01.005.019-.04.019-.044 0-.063-.009-.04-.02zm.372-.076a.231.231 0 0 1 .114 0c.031.01.006.017-.057.017-.062 0-.088-.008-.057-.017zm.406-.074a.11.11 0 0 1 .08 0c.023.01.005.02-.04.02-.044 0-.063-.01-.04-.02zm.607-.161c.008-.016.045-.038.08-.05.037-.01.06-.006.05.01-.008.017-.045.039-.08.05-.037.01-.059.006-.05-.01zm-6.368-.282c-.022-.03-.033-.056-.024-.056.009 0 .034.025.056.056s.033.056.024.056c-.009 0-.034-.025-.056-.056zm6.79-.056a.285.285 0 0 1 .074-.075c.01 0-.01.034-.042.075-.032.041-.066.075-.075.075-.009 0 .01-.034.043-.075zm6.984-.056c-.022-.03-.033-.056-.024-.056.009 0 .034.025.056.056.022.03.033.056.024.056-.009 0-.034-.025-.056-.056zM.82 5.475c-.017-.055-.014-.058.02-.021.022.025.032.055.022.067-.01.011-.028-.01-.04-.046zm15.39-.208l-.062-.084.073.071c.068.067.087.097.062.097a.39.39 0 0 1-.073-.084zm-6.495.012c0-.02.014-.046.032-.058.018-.014.023.002.012.035-.021.065-.044.076-.044.023zM.575 4.92c-.022-.03-.033-.056-.024-.056.009 0 .034.025.057.056.022.03.033.056.024.056-.01 0-.035-.025-.057-.056zm9.352.008c.013-.037.03-.058.04-.046.01.011 0 .041-.021.067-.032.036-.036.032-.019-.021zm6.11-.049c.002-.043.01-.052.02-.022.009.027.008.06-.003.072-.01.012-.018-.01-.017-.05zm-.1-.09c-.029-.022-.033-.037-.01-.037.021 0 .048.016.059.037.025.046.013.046-.049 0zm-5.93-.035a.08.08 0 0 1 .031-.058c.019-.013.024.002.013.035-.021.065-.045.077-.045.023zM2.033 4.64c-.02-.04-.028-.075-.019-.075.01 0 .032.034.051.075.02.041.027.075.019.075-.01 0-.032-.034-.051-.075zM.676 4.605c-.028-.02-.031-.039-.01-.054.02-.013.044-.006.056.016.03.056.006.076-.046.038zm15.358-.058c-.022-.031-.033-.056-.024-.056.01 0 .035.025.057.056.022.03.033.056.024.056-.009 0-.034-.025-.057-.056zm-5.924-.15c0-.062.008-.082.016-.046a.246.246 0 0 1-.001.112c-.01.026-.016-.004-.015-.066zm5.957-.056c-.03-.022-.033-.037-.01-.037.021 0 .047.016.058.037.025.046.014.046-.048 0zM1.822 4.264c-.012-.022-.015-.048-.006-.058.008-.01.024.008.034.04.022.066.004.077-.028.018zm14.472-.017c-.022-.03-.033-.056-.024-.056.008 0 .034.025.056.056s.033.056.024.056c-.009 0-.034-.025-.056-.056zM.522 4.208C.51 4.177.51 4.142.518 4.132c.01-.01.024.016.034.058.02.089-.002.103-.03.018zm9.637-.017c.01-.042.029-.084.043-.094.014-.01.017.016.008.057-.01.042-.029.084-.043.094-.014.01-.017-.016-.008-.057zm6.264.024c0-.008.026-.038.057-.066.051-.047.053-.045.012.014-.042.062-.069.082-.069.052zM1.578 3.9l-.112-.14.122.129c.067.07.122.134.122.14 0 .029-.028.002-.132-.129zM.513 3.72c.002-.044.01-.053.02-.023.009.027.008.059-.003.071-.01.013-.018-.01-.017-.049zm.84-.035c-.022-.03-.033-.056-.024-.056.009 0 .034.025.056.056.023.03.033.056.025.056-.01 0-.035-.025-.057-.056zm-.34-.206l-.097-.028.087-.005c.048-.002.096.013.107.033.011.02.015.036.01.033a2.67 2.67 0 0 0-.107-.033zm15.26-.245c-.011-.031-.012-.066-.004-.076.01-.01.024.016.034.058.02.089-.002.103-.03.018zm-.288-.356c-.012-.022-.015-.048-.006-.058.008-.01.024.008.034.04.022.066.003.078-.028.018zm.052-.132c.002-.043.01-.052.02-.022.009.027.008.06-.003.071-.01.013-.018-.01-.017-.049zm-4.907-.202a.524.524 0 0 0 .051-.188l.014-.13.005.135c.004.09-.014.153-.051.187-.05.045-.052.045-.02-.004zm4.71-.187c-.02-.042-.03-.075-.025-.075.006 0 .036.033.066.075.03.04.042.074.025.074s-.047-.033-.066-.074zm-.177-.148c-.01-.019-.001-.047.02-.061.022-.017.029-.011.016.012a.042.042 0 0 0 .02.06c.028.013.029.02.001.021a.065.065 0 0 1-.057-.032zm-.161-.253c-.018-.053-.014-.058.018-.021.022.025.032.056.022.067-.01.012-.028-.01-.04-.046zm.065-.284c.012-.037.03-.058.04-.046.01.011 0 .042-.022.067-.032.037-.036.032-.018-.021zm.084-.251c0-.051.007-.072.016-.047a.166.166 0 0 1 0 .094c-.009.026-.016.004-.016-.047zm-2.96.012c.023-.01.05-.01.061.003.011.012-.008.021-.042.02-.038-.002-.046-.011-.02-.023zm.129 0c.023-.01.051-.01.062.003.01.012-.008.021-.043.02-.037-.002-.045-.011-.02-.023zm-.235-.188c-.018-.053-.014-.058.018-.021.022.025.032.056.022.067-.01.012-.028-.01-.04-.046zm1.648.021c-.015-.027-.01-.034.014-.017.022.016.037.004.037-.03 0-.03.014-.065.03-.076.016-.012.021.013.012.054-.022.095-.063.126-.093.07zm-.238-.054c.002-.044.01-.052.02-.023.01.027.008.06-.003.072-.01.013-.018-.01-.017-.049zm1.674-.019c.012-.05.026-.067.034-.04a.107.107 0 0 1-.02.09c-.024.027-.028.013-.014-.05zM12.537 1.1c.001-.044.009-.053.02-.023.009.027.008.06-.003.072-.01.012-.019-.01-.017-.05zm1.456-.051a.08.08 0 0 1 .032-.058c.018-.013.024.002.012.035-.021.065-.044.077-.044.023zm.453-.12a.61.61 0 0 1 .098-.125c.053-.06.097-.1.097-.09a.587.587 0 0 1-.097.127c-.054.06-.098.1-.098.089zM12.072.67c.022-.026.048-.037.058-.026.01.012-.008.033-.04.047-.046.02-.05.016-.018-.021zM14.9.509c0-.007.026-.036.057-.065.051-.046.052-.045.012.014-.042.063-.069.083-.069.052zm.696-.324c-.012-.022-.015-.048-.006-.058.008-.01.024.008.034.04.022.066.004.077-.028.018zm-.177-.148c0-.02.015-.037.034-.037.019 0 .025.017.014.037-.01.021-.026.038-.034.038-.008 0-.014-.017-.014-.038z"/><path d="M10.39 18.498c.023-.01.05-.01.061.003.011.012-.008.021-.042.02-.038-.002-.046-.011-.02-.023zm-.63-.133l-.062-.085.073.072c.069.067.088.097.062.097a.39.39 0 0 1-.073-.084zm1.219.07c0-.008.029-.024.064-.034.036-.011.057-.005.047.014-.017.032-.111.049-.111.02zm.536-.102a.069.069 0 0 1 .054-.034c.02 0 .067-.03.104-.065.067-.065.067-.065.008.015-.057.078-.202.152-.166.084zm-1.964-.25l-.112-.14.122.13c.067.07.121.134.121.14 0 .028-.027.001-.131-.13zm2.164-.005c-.014-.063-.01-.077.014-.05a.107.107 0 0 1 .02.09c-.008.027-.022.01-.034-.04zm-.08-.369c-.038-.093-.037-.096.011-.04.03.034.048.08.041.101-.006.022-.03-.005-.053-.06zm-2.453-.484c-.018-.053-.014-.058.018-.021.022.025.032.055.022.067-.01.012-.028-.01-.04-.046zm-6.938-.049c.09-.044.14-.044.081 0a.182.182 0 0 1-.097.035c-.032-.002-.026-.013.016-.035zm9.096-.15c0-.05.008-.072.017-.046a.166.166 0 0 1 0 .094c-.01.025-.017.004-.017-.047zm.83.048c.075-.008.2-.008.275 0 .076.008.014.015-.138.015-.151 0-.213-.007-.137-.015zm-3.065-.103c0-.062.008-.083.016-.046a.246.246 0 0 1 0 .112c-.01.025-.016-.005-.016-.066zm3.55.051c.022-.025.048-.037.058-.025.01.011-.008.032-.04.046-.046.02-.05.016-.018-.02zm-.866-.033c-.06-.044-.008-.044.08 0 .044.022.05.033.017.035a.182.182 0 0 1-.097-.035zm1.013.012a.231.231 0 0 1 .113 0c.031.01.006.017-.057.017-.062 0-.088-.008-.056-.017zm-11.676-.124c-.019-.041-.027-.075-.018-.075.009 0 .031.034.05.075.02.041.028.075.02.075-.01 0-.033-.034-.052-.075zm1.734 0c.032-.041.066-.075.075-.075.009 0-.01.034-.043.075-.032.041-.065.075-.074.075-.01 0 .01-.034.042-.075zm10.243-.017a.252.252 0 0 1 .094-.057c.017 0 .002.024-.033.054-.034.03-.076.056-.093.056s-.002-.023.032-.053zm-10.135-.195c.014-.079.022-.088.031-.036.007.038-.001.085-.018.105-.02.024-.025 0-.013-.07zm10.312.085c0-.007.029-.023.065-.033.035-.011.056-.005.046.014-.017.032-.111.049-.111.02zm.18-.017c-.009-.018.02-.024.064-.015.044.01.08.025.08.032 0 .03-.127.014-.143-.017zm-12.657-.22c0-.041.01-.05.024-.025.013.023.046.05.072.062.033.015.025.023-.024.025-.049.002-.073-.019-.072-.063zm.065-.155c.03-.07.029-.097-.006-.125-.036-.029-.035-.033.003-.02.068.02.074.077.017.16-.049.07-.05.07-.014-.015zm12.662-.04c-.014-.061-.01-.076.014-.048a.107.107 0 0 1 .02.088c-.008.028-.022.011-.034-.04zM.645 16.284c-.028-.021-.01-.03.054-.027.053.002.09.016.082.032-.02.037-.082.034-.136-.005zm8.003-.03c-.002-.044-.021-.09-.043-.1-.032-.014-.032-.02 0-.021.05-.004.086.086.062.154-.01.027-.018.012-.02-.033zm-5.827-.18c0-.103.006-.141.014-.084a.77.77 0 0 1 0 .187c-.008.046-.015 0-.014-.103zm5.662.112c-.022-.031-.033-.056-.024-.056.009 0 .034.025.056.056.023.03.034.056.025.056-.01 0-.035-.025-.057-.056zm4.977-.045c-.018-.054-.014-.058.018-.021.022.025.032.055.022.067-.01.011-.028-.01-.04-.046zm-7.965-.037c.024-.01.052-.01.062.003.011.012-.008.021-.042.02-.038-.002-.046-.011-.02-.023zm.136-.028c0-.01.03-.037.065-.059.036-.022.065-.031.065-.02 0 .01-.03.036-.065.058-.036.022-.065.031-.065.021zM5 16.017c-.011-.021.002-.028.03-.015.057.025.067.052.02.052-.016 0-.039-.017-.05-.037zm3.426-.057c0-.061.008-.082.016-.046a.246.246 0 0 1-.001.112c-.01.026-.016-.004-.015-.066zM4.8 15.933c.052-.02.104-.023.12-.005.015.018-.025.035-.092.038-.118.005-.118.004-.028-.033zm1.318.032c0-.008.026-.037.057-.066.051-.046.052-.045.012.015-.042.062-.069.082-.069.05zm-2.932-.134c-.012-.022-.037-.029-.057-.015-.022.015-.025.007-.01-.022.018-.033.035-.035.06-.005.065.075.084.041.094-.172.007-.15.024-.217.058-.227.034-.01.037-.006.01.016-.021.018-.043.123-.049.234-.009.19-.059.28-.106.19zm5.188-.046a.031.031 0 0 1 .047-.01c.043.03.038.042-.017.042-.025 0-.039-.014-.03-.032zm4.502.007c-.012-.02.001-.027.03-.014.056.024.067.051.02.051-.017 0-.04-.016-.05-.037zm-12.51-.034c-.01-.019.011-.025.047-.014.076.023.085.048.018.048-.025 0-.055-.015-.065-.034zm3.78-.06c.001-.061.008-.082.017-.046a.246.246 0 0 1-.002.113c-.008.025-.015-.005-.014-.067zm3.073.005c0-.008.03-.023.065-.034.036-.011.057-.005.047.014-.018.033-.112.05-.112.02zm-.227-.075c0-.008.026-.037.057-.065.051-.047.053-.046.012.014-.042.062-.069.082-.069.051zm.478-.103c.022-.025.048-.037.058-.025.01.011-.008.032-.04.046-.046.02-.05.016-.018-.02zm.356 0c.022-.025.048-.037.058-.025.01.011-.008.032-.04.046-.046.02-.05.016-.018-.02zm-1.102-.104c-.014-.063-.01-.077.014-.05a.107.107 0 0 1 .02.09c-.008.027-.022.01-.034-.04zm-.64-.04c-.018-.042-.027-.076-.018-.076.01 0 .032.034.051.075.02.041.028.075.019.075-.01 0-.032-.034-.051-.075zm-2.425-.076c0-.051.008-.072.017-.046a.166.166 0 0 1 0 .093c-.01.026-.017.005-.017-.047zm-3.538.014c0-.02.023-.07.05-.11.048-.068.05-.067.013.022-.048.114-.063.135-.063.088zm.227-.049c0-.04.013-.081.028-.092.015-.011.02.022.012.072-.018.11-.04.122-.04.02zm3.725-.049c-.01-.08-.005-.126.011-.107.016.018.024.081.017.14-.01.099-.013.096-.028-.033zm2.217.064c-.01-.032-.012-.066-.003-.076.01-.01.024.016.034.058.02.089-.003.102-.03.018zm-2.515-.092c-.03-.04-.042-.075-.025-.075s.046.03.064.066c.03.057.038.058.069.01.029-.047.033-.047.023-.003-.02.084-.07.085-.13.002zm2.31-.224c.019-.042.042-.075.05-.075.01 0 .001.033-.018.075-.019.04-.042.074-.05.074-.01 0-.001-.033.018-.074zm-5.667-.034c-.033-.024-.034-.039-.006-.059.044-.032.078-.004.061.052-.006.022-.03.025-.055.007zm3.528-.085c0-.017.022-.031.048-.031.027 0 .049.014.049.031s-.022.031-.049.031c-.026 0-.048-.014-.048-.03zm-3.792-.106c-.03-.022-.033-.036-.01-.037.021 0 .047.017.059.037.024.047.013.047-.05 0zm-.115-.04a.071.071 0 0 1 .007-.075c.017-.02.03-.003.03.04 0 .086-.007.091-.037.034zm12.95-.315a.25.25 0 0 1 .031-.094c.018-.03.032-.04.032-.019 0 .02-.014.063-.032.094-.017.03-.031.04-.031.019zM.125 14.272a.188.188 0 0 1 .053-.131c.05-.045.052-.044.02.004a.458.458 0 0 0-.053.131c-.015.071-.016.071-.02-.004zm12.668-.044c.031-.073.098-.086.098-.018 0 .012-.01.012-.021-.002-.012-.013-.042.005-.067.04-.04.059-.042.057-.01-.02zm.287-.183c.013-.078.021-.087.03-.036.008.038 0 .086-.018.106-.02.023-.025-.001-.012-.07zm.235.041c.001-.044.009-.052.02-.023.009.027.007.06-.003.072-.011.013-.019-.01-.017-.049zm-.098-.037c.002-.044.01-.053.02-.023.01.027.008.06-.003.072-.01.012-.018-.01-.017-.05zm-.067-.128c-.042-.031-.04-.037.008-.037.031 0 .057.016.057.037 0 .045-.004.045-.065 0zm.168-.169c.001-.061.008-.082.017-.046a.246.246 0 0 1-.002.113c-.009.025-.015-.005-.015-.067zm.217-.121c-.04-.059-.039-.06.01-.017.045.041.056.039.068-.019.012-.053.016-.05.02.017.004.1-.037.109-.098.019zm-.254-.084c0-.065.054-.175.072-.149.007.01-.006.06-.03.111-.023.052-.042.069-.042.038zM.348 13.455c0-.03.014-.063.03-.075.016-.011.021.013.012.054-.02.088-.042.099-.042.021zm13.202-.153c-.01-.032-.012-.066-.003-.077.009-.01.024.016.033.058.02.09-.002.103-.03.019zm.068-.176l-.095-.122.099.103c.113.118.16.132.13.037-.017-.05-.013-.055.016-.022.037.043.017.125-.03.125a.456.456 0 0 1-.12-.121zm.077-.19c-.012-.069-.007-.093.013-.07.017.02.026.068.019.106-.01.051-.018.042-.032-.036zM.348 12.888c0-.073-.012-.092-.05-.076-.029.013-.042.007-.03-.014.043-.082.113-.036.113.075 0 .062-.008.112-.016.112-.01 0-.017-.044-.017-.097zm13.381-.23c-.04-.058-.038-.06.007-.02.029.026.064.035.078.02.015-.016.017-.007.004.019-.03.06-.036.059-.089-.02zm-13.608-.12c0-.019.015-.045.033-.058.018-.013.023.002.012.036-.021.064-.045.076-.045.022zm13.66-.08c-.012-.021-.015-.047-.006-.057.008-.01.024.008.034.04.022.066.004.078-.028.018zm.376-.456l.079-.066c.06-.05.061-.05.02.01-.024.037-.06.066-.078.066-.019 0-.028-.004-.02-.01zm-13.77-.12c0-.062.008-.083.016-.047a.246.246 0 0 1-.001.113c-.009.025-.016-.005-.015-.067zm13.824-.278c-.014-.063-.01-.077.014-.05a.107.107 0 0 1 .02.09c-.008.027-.023.01-.034-.04zm-.07-.217c-.018-.053-.014-.058.018-.02.022.025.032.055.022.066-.01.012-.028-.009-.04-.046zm-13.404-.18a.75.75 0 0 1 .126-.13c.01 0-.033.059-.093.13a.75.75 0 0 1-.126.132c-.01 0 .033-.06.093-.131zm13.562-.32c-.012-.022-.014-.048-.006-.058.009-.01.024.009.035.04.022.066.003.078-.029.018zm-13.254-.072c.032-.041.066-.075.075-.075.009 0-.01.034-.042.075-.033.041-.066.075-.075.075-.01 0 .01-.034.042-.075zm13.169-.274c-.012-.069-.008-.093.013-.07.017.02.025.068.018.106-.01.051-.017.042-.031-.036zm-12.958-.164c0-.022.025-.063.057-.09.052-.048.053-.047.009.023a6.204 6.204 0 0 0-.057.09c-.005.009-.01-.002-.01-.023zm12.747-.301a.935.935 0 0 0-.037-.1c-.008-.018 0-.023.018-.01.034.025.08.175.053.175-.008 0-.023-.03-.034-.065zm-.09-.26c-.017-.054-.013-.058.019-.022.022.026.032.056.022.068-.01.011-.028-.01-.04-.047zm-12.497-.15c.048-.114.045-.12-.051-.112-.053.004-.091-.015-.1-.049-.01-.042-.007-.044.015-.009.016.027.063.043.104.038.095-.013.115.046.049.141-.05.071-.05.071-.017-.008zm12.568-.164c.011-.05.026-.067.034-.04a.107.107 0 0 1-.02.09c-.024.027-.028.012-.014-.05zM1.385 9.304c0-.008.026-.037.057-.066.052-.046.053-.045.012.014-.042.063-.069.083-.069.052zm12.616-.379c0-.082.006-.12.014-.085a.472.472 0 0 1 0 .15c-.007.047-.014.017-.014-.065zM1.71 8.78c0-.008.025-.037.056-.066.052-.046.053-.045.012.015-.042.062-.068.082-.068.05zm13.498-.135c-.011-.021.002-.028.03-.015.057.025.067.052.02.052-.016 0-.039-.017-.05-.037zm.21-.003c0-.022.015-.029.033-.016.019.013.042-.028.053-.092.011-.064.032-.124.046-.134.027-.02-.013.174-.05.243-.027.05-.081.05-.081 0zm-13.632-.13c-.011-.032-.012-.066-.004-.077.01-.01.024.016.034.058.02.09-.002.103-.03.019zm13.395.033c-.012-.014-.022-.072-.022-.128 0-.057-.01-.11-.024-.119-.013-.008-.01-.013.008-.01.018.004.041.069.052.144.02.146.02.151-.014.113zm-.113-.106c.001-.062.008-.083.017-.047a.246.246 0 0 1-.002.113c-.008.025-.015-.005-.015-.066zm-.848-.057a.18.18 0 0 1 .08-.036c.018 0 .011.016-.016.036a.18.18 0 0 1-.08.037c-.019 0-.011-.017.016-.037zm.311-.081c.01-.018.03-.022.047-.01.043.03.038.042-.017.042-.026 0-.04-.015-.03-.032zm.355-.042c.012-.037.03-.058.04-.046.01.012 0 .042-.022.067-.032.037-.036.033-.018-.02zm.929-.085c.03-.037.063-.06.071-.05.009.01-.016.04-.056.068-.068.047-.069.046-.015-.018zm-.96-.06c.009-.017.03-.031.047-.031a.03.03 0 0 1 .03.031c0 .017-.02.031-.047.031-.026 0-.04-.014-.03-.03zm1.212-.11c0-.01.044-.068.097-.127.054-.059.097-.099.097-.089 0 .01-.043.067-.097.127-.053.059-.097.099-.097.088zm.263-.36c.04-.068.082-.122.093-.122.031 0 .098.086.098.127 0 .02-.02.005-.045-.034-.043-.068-.048-.066-.132.04l-.087.11zm.32-.12c0-.02.015-.046.032-.058.019-.013.024.002.013.035-.022.065-.045.077-.045.023zm-15.2-.058c-.022-.031-.033-.057-.024-.057.009 0 .034.026.057.057.022.03.033.056.024.056-.01 0-.035-.026-.057-.056zm-.341-.321c-.012-.022-.015-.048-.006-.058.008-.01.024.008.034.04.022.066.004.078-.028.018zm3.688-.287a7.82 7.82 0 0 1 .567 0c.156.007.028.012-.284.012s-.44-.005-.283-.012zm.893.002c.023-.01.051-.01.062.003.01.012-.008.021-.043.02-.037-.002-.045-.011-.02-.023zm-4.531-.05c-.03-.021-.034-.036-.01-.036.02 0 .047.016.058.037.025.046.014.046-.048 0zm4.66.013c.024-.011.052-.01.063.003.01.012-.009.02-.043.02-.038-.003-.045-.011-.02-.023zm-1.628-.046c-.01-.019.01-.025.046-.015.076.023.086.049.019.049-.026 0-.055-.016-.065-.034zm2.38.02c0-.009.03-.024.065-.035.035-.01.056-.004.046.015-.017.032-.111.049-.111.02zm-5.473-.138a.322.322 0 0 0-.037-.14c-.017-.025-.009-.022.02.006.03.03.045.088.036.14-.014.089-.014.089-.019-.006zm5.919.015a.11.11 0 0 1 .08 0c.023.01.005.019-.04.019-.044 0-.063-.009-.04-.02zm-3.258-.052c-.04-.018-.072-.04-.072-.05 0-.028.13.021.148.056.02.039.02.039-.076-.006zm3.573.003c.009-.017.045-.039.081-.05.036-.01.058-.006.05.01-.009.016-.045.038-.081.05-.036.01-.059.006-.05-.01zm9.47-.064a.112.112 0 0 1-.022-.063c0-.024.015-.022.038.005.021.025.031.053.022.064-.01.01-.027.008-.039-.006zm-13.229-.05c-.011-.02.002-.027.03-.014.057.025.067.052.02.052-.016 0-.039-.017-.05-.037zm4.197-.164c0-.008.05-.021.111-.03.061-.008.104-.001.096.015-.016.03-.207.043-.207.015zm8.963-.05c-.017-.053-.014-.057.018-.02.023.025.033.055.023.067-.01.011-.028-.01-.04-.046zm-13.56-.086c-.043-.04-.063-.074-.046-.074s.057.034.09.075c.074.095.055.094-.045-.001zm5.142.013c.023-.011.051-.01.062.003.01.012-.008.021-.042.02-.038-.002-.046-.011-.02-.023zm.265-.048a.214.214 0 0 1 .111-.038c.083-.001.057.02-.062.051-.071.018-.084.015-.049-.013zm8.085-.041c-.012-.022-.014-.048-.006-.058.009-.01.024.008.035.04.022.066.003.077-.029.018zM2.987 6.053l-.062-.084.073.071c.04.04.073.077.073.084 0 .03-.026.008-.084-.071zm5.95.032c0-.008.036-.022.08-.032.044-.01.072-.003.063.015-.017.03-.143.046-.143.017zM.963 5.903l.111-.14-.111-.14-.111-.14.128.14.129.14-.129.14-.128.14zm15.608.02c-.017-.053-.014-.057.018-.02.023.025.033.055.023.067-.01.011-.029-.01-.04-.046zM2.78 5.854c-.054-.035-.064-.052-.028-.052.029 0 .07.025.093.055.047.066.042.066-.065-.003zm6.676-.109a.404.404 0 0 1 .093-.093c.009 0-.018.042-.06.093a.404.404 0 0 1-.093.094c-.008 0 .018-.042.06-.094zm6.904-.224c-.023-.031-.034-.056-.025-.056.01 0 .035.025.057.056.022.03.033.056.024.056-.009 0-.034-.025-.056-.056zm-.13-.187c-.022-.031-.033-.057-.024-.057.009 0 .034.026.056.057.023.03.033.056.024.056-.008 0-.034-.026-.056-.056zM.723 5.175c-.017-.053-.014-.057.018-.02.022.025.032.055.022.066-.01.012-.028-.009-.04-.046zm1.57-.03c-.022-.03-.033-.056-.024-.056.009 0 .034.026.056.056.023.031.033.057.024.057-.008 0-.034-.026-.056-.057zm7.57-.104c.012-.037.03-.058.04-.046.01.011 0 .042-.022.067-.032.037-.036.032-.018-.021zm6.142-.048c.001-.044.009-.053.02-.023.009.027.007.06-.003.072-.011.012-.019-.01-.017-.05zM.51 4.755c0-.02.015-.046.032-.058.019-.013.024.002.013.035-.021.065-.045.077-.045.023zm15.362-.021c0-.031.015-.056.032-.056s.023.025.013.056c-.01.03-.025.056-.032.056-.007 0-.013-.025-.013-.056zm.124-.044c.023-.011.051-.01.062.002.01.013-.008.022-.042.02-.038-.002-.046-.01-.02-.022zM.655 4.488C.643 4.466.64 4.44.649 4.43c.008-.01.024.008.035.04.022.066.003.078-.03.018zm-.065-.15C.578 4.316.576 4.29.584 4.281c.009-.01.024.008.035.04.022.066.003.077-.029.017zm15.526.003c-.012-.02.001-.027.03-.014.056.024.067.051.02.051-.017 0-.04-.016-.05-.037zm.107-.175c.023-.011.051-.01.062.003.01.012-.008.02-.043.02-.037-.003-.045-.011-.02-.023zm-5.99-.087c.02-.041.042-.075.051-.075.009 0 0 .034-.018.075-.02.041-.042.075-.051.075-.01 0 0-.034.018-.075zm-8.687-.178l-.144-.178.154.167c.143.155.168.189.144.189-.005 0-.074-.08-.154-.178zM.513 3.833c.002-.044.01-.053.02-.023.009.027.008.06-.003.072-.01.012-.018-.01-.017-.05zm15.716-.138c0-.036.024-.065.054-.065s.04.013.025.028a.438.438 0 0 0-.054.065c-.014.022-.024.01-.025-.028zm-5.866-.004c0-.008.025-.038.057-.066.05-.046.052-.045.012.014-.043.063-.07.082-.07.052zM.57 3.567c.013-.078.022-.087.03-.036.008.038 0 .086-.018.106-.02.023-.025-.001-.012-.07zm.686.063c-.03-.022-.033-.037-.01-.037.021 0 .047.016.058.037.025.046.014.046-.048 0zm14.957-.15c-.051-.06-.087-.117-.079-.125.008-.007.055.043.106.112.115.156.098.164-.027.014zM.867 3.444c-.03-.022-.033-.037-.01-.037.021 0 .047.016.059.037.024.046.013.046-.05 0zm15.265-.43c-.023-.031-.033-.057-.024-.057.008 0 .034.026.056.056.022.031.033.057.024.057-.009 0-.034-.026-.056-.057zm-5.315-.07c0-.009.025-.038.056-.066.052-.047.053-.046.013.014-.043.062-.07.082-.07.051zm.145-.211c.033-.041.066-.075.075-.075.01 0-.01.034-.042.075-.032.04-.066.075-.075.075-.009 0 .01-.034.042-.075zm4.999-.137a.162.162 0 0 1 .097-.001c.032.01.014.017-.04.018-.053.001-.079-.007-.057-.017zm.025-.125c-.011-.021.002-.027.03-.014.057.024.067.051.02.051-.016 0-.039-.016-.05-.037zm-4.762-.273c.012-.037.03-.058.04-.046.01.011 0 .041-.022.067-.032.037-.036.032-.018-.021zm4.35-.164c.024-.011.052-.01.063.003.01.012-.009.02-.043.02-.038-.003-.045-.011-.02-.023zm-4.271-.085a.08.08 0 0 1 .032-.058c.018-.013.024.002.012.035-.021.065-.044.077-.044.023zm2.204-.47c-.023-.03-.034-.056-.025-.056.01 0 .035.025.057.056s.033.056.024.056c-.009 0-.034-.025-.056-.056zm.437.02c-.011-.022.002-.028.03-.015.057.024.067.051.02.051-.016 0-.039-.016-.05-.037zm-1.157-.027c.024-.01.052-.01.063.003.01.013-.009.022-.043.02-.038-.002-.045-.01-.02-.023zm.284-.003a.228.228 0 0 0 .056-.093c.023-.072.073-.086.104-.028.01.02 0 .028-.026.016-.029-.012-.053.01-.064.057-.01.042-.037.077-.06.076-.03 0-.032-.01-.01-.028zm-.154-.034c.023-.01.051-.01.062.003.011.012-.008.021-.042.02-.038-.002-.046-.011-.02-.023zm.67-.012c-.01-.02-.005-.066.012-.101.026-.053.03-.046.026.037-.006.113-.009.118-.037.064zm-.973-.04c-.012-.022-.014-.048-.006-.058.009-.01.024.009.035.04.022.066.003.078-.03.018zm.738-.017c.048-.059.064-.062.098-.02.032.04.032.045-.002.023-.023-.015-.066-.006-.097.02-.05.044-.05.042.001-.023zm.381-.037c-.022-.03-.033-.056-.024-.056.01 0 .035.026.057.056.022.031.033.057.024.057-.009 0-.034-.026-.057-.057zm-1.184-.096c-.012-.022-.014-.048-.006-.057.009-.01.024.008.035.04.022.066.003.077-.029.017zm3.129-.454c-.01-.2-.005-.35.01-.333.013.016.02.18.015.363l-.01.333zM12.48.982a.935.935 0 0 0-.037-.099c-.009-.019 0-.023.018-.01.033.024.08.175.053.175-.008 0-.023-.03-.034-.066zm-.56-.157a.538.538 0 0 1 .14-.112c.016-.001-.026.049-.093.11-.158.145-.194.146-.047.002zm.44-.102c-.043-.067-.082-.089-.136-.077-.042.01-.069.002-.06-.015.033-.061.132-.032.208.061.042.052.07.1.062.109-.007.008-.04-.027-.074-.078zm2.434-.126c.04-.048.078-.08.086-.071.008.01-.025.049-.072.087l-.086.071zm.738-.523a.037.037 0 0 0-.056-.013c-.02.015-.026.008-.012-.018.032-.06.074-.054.096.013.021.064.003.076-.028.018z"/><path d="M9.992 18.49c-.012-.023-.048-.041-.08-.041s-.148-.117-.257-.259c-.158-.204-.2-.284-.2-.38 0-.157-.097-.401-.17-.43a.1.1 0 0 1-.058-.084.313.313 0 0 0-.048-.136.382.382 0 0 1-.048-.178c0-.058-.016-.105-.036-.105-.025 0-.032-.063-.021-.189l.016-.189-.092.024c-.12.03-.32-.137-.32-.266 0-.103-.062-.158-.099-.089-.05.094-.128-.034-.128-.21 0-.089-.013-.171-.03-.183-.016-.011-.075.04-.132.115-.092.122-.108.13-.152.08-.031-.037-.052-.14-.056-.277l-.007-.22-.101.006a.406.406 0 0 0-.198.084c-.114.094-.167.1-.167.022 0-.102-.093-.103-.196-.003-.126.122-.18.123-.206.004-.025-.113-.05-.116-.158-.018-.098.09-.12.093-.12.018 0-.066-.038-.072-.088-.015-.026.03-.042.018-.057-.046-.038-.155-.092-.257-.137-.257-.023 0-.043.025-.043.054 0 .04-.035.053-.127.049-.121-.006-.131-.016-.183-.176a1.06 1.06 0 0 0-.106-.238c-.049-.065-.053-.065-.093-.002-.068.106-.048.353.04.519.095.178.104.357.021.443-.068.072-.207.081-.291.02-.048-.034-.076-.024-.15.056a.268.268 0 0 1-.21.098c-.066 0-.135.019-.154.041-.026.03-.042.03-.057 0-.012-.022-.05-.04-.086-.04a.498.498 0 0 1-.195-.097c-.114-.082-.146-.09-.231-.056-.163.066-.409.05-.51-.033-.079-.066-.093-.111-.13-.421-.023-.191-.055-.364-.07-.383a.358.358 0 0 1-.028-.16c0-.084-.015-.123-.049-.123-.032 0-.048.037-.048.11 0 .06-.015.12-.033.134-.018.013-.027.035-.019.05.009.015.002.052-.014.082-.024.045-.037.042-.079-.02-.05-.074-.05-.074-.098-.002a.305.305 0 0 0-.049.14c0 .042-.024.068-.063.068-.047 0-.073.04-.1.152-.043.185-.108.176-.123-.017-.015-.218-.085-.144-.096.101-.01.215-.028.247-.095.17-.028-.031-.05-.005-.09.103-.052.138-.056.141-.083.06-.016-.046-.053-.095-.082-.108-.13-.058-.149.274-.03.534a.878.878 0 0 1 .081.26c0 .192-.309.454-.615.523a5.035 5.035 0 0 1-.535.043c-.471.02-.48.016-.647-.28-.107-.188-.261-.381-.305-.381-.051 0-.045-.062.015-.168.059-.104.032-.187-.047-.148a.627.627 0 0 1-.175.036c-.114.01-.121.004-.121-.1 0-.06.029-.176.065-.257a.77.77 0 0 0 .064-.204c0-.074-.077-.074-.13-.001a.144.144 0 0 1-.101.056c-.05 0-.057-.019-.041-.094.016-.072.008-.093-.036-.093-.065 0-.055-.06.104-.646.05-.182-.212.08-.301.302-.08.201-.143.203-.143.005 0-.161.036-.264.133-.385.067-.082.052-.144-.03-.129-.08.016-.062-.183.045-.513a.345.345 0 0 0 .019-.119.078.078 0 0 1 .027-.068c.018-.013.033-.056.033-.096a.41.41 0 0 1 .029-.139c.015-.035.05-.149.078-.252.1-.367.098-.355.021-.355-.059 0-.067-.015-.047-.084.086-.31.046-.397-.113-.253-.112.101-.13.094-.13-.051 0-.105.128-.443.193-.51.053-.056.105-.214.121-.377.01-.102.032-.185.047-.185s.028-.017.028-.039c0-.065.132-.268.378-.582.29-.37.367-.482.367-.54 0-.06.173-.41.203-.41.013 0 .024-.026.024-.056 0-.032-.029-.057-.065-.057-.086 0-.081-.074.018-.28.092-.19.082-.255-.036-.22-.043.012-.079.012-.079 0 0-.021.25-.435.421-.697.133-.204.134-.206.079-.437a4.184 4.184 0 0 1-.062-.3.796.796 0 0 0-.058-.187 4.129 4.129 0 0 1-.105-.262.895.895 0 0 0-.247-.333c-.104-.097-.19-.189-.19-.204 0-.015.051-.055.114-.09.062-.034.113-.077.113-.096 0-.018-.051-.061-.113-.096-.09-.048-.114-.084-.114-.164a.283.283 0 0 0-.065-.17.262.262 0 0 1-.064-.155c0-.049-.013-.088-.028-.088-.015 0-.045-.045-.066-.1-.036-.091-.03-.11.08-.24l.12-.142-.15-.194a1.062 1.062 0 0 1-.172-.292 1.554 1.554 0 0 0-.133-.301c-.094-.172-.106-.216-.076-.29.028-.071.051-.085.116-.066.074.022.121-.034.056-.065a.857.857 0 0 1-.114-.195c-.07-.148-.087-.23-.087-.438 0-.14.014-.265.032-.278.018-.013.033-.063.033-.112 0-.17.212-.159.55.03.176.1.49.431.626.661.055.093.11.178.122.188.012.01.05.078.083.15.034.072.109.21.166.306.058.096.105.184.105.196 0 .022.298.506.406.66.035.05.106.116.156.146a.35.35 0 0 1 .121.118c.031.068.405.371.65.53.083.052.236.124.34.16.105.035.22.077.256.093.156.072.363.09.956.085.801-.008 1.456-.043 1.54-.084.035-.017.217-.058.404-.09.284-.05.352-.075.409-.15.097-.128.184-.174.333-.174.071 0 .139-.017.15-.037.01-.02.063-.038.117-.038.053 0 .158-.015.233-.034.075-.02.26-.063.411-.096.51-.113.665-.248 1.03-.896.282-.5.364-.7.364-.887 0-.06.015-.108.032-.108.018 0 .033-.017.033-.038a.74.74 0 0 1 .079-.182c.043-.08.072-.176.064-.215-.01-.042.02-.114.075-.182.05-.062.19-.284.31-.495.122-.21.278-.439.349-.508.099-.098.127-.154.127-.245a.56.56 0 0 1 .03-.184c.016-.036.055-.14.088-.233a1.23 1.23 0 0 1 .076-.187.575.575 0 0 0 .052-.094c.22-.464.401-.804.43-.805.012 0 .067-.05.123-.11.124-.135.252-.178.323-.11.055.052.207.394.207.465 0 .092.108.286.174.312a.85.85 0 0 0 .248.023c.138-.004.18-.019.188-.068.012-.069.024-.071.12-.027.038.018.082.014.108-.01.034-.032.06-.018.108.06.08.127.171.138.145.017-.04-.179.025-.193.204-.044.156.13.172.135.221.078.042-.048.045-.07.014-.106-.021-.025-.038-.122-.038-.216l.001-.17.061.094a3.8 3.8 0 0 0 .125.179l.065.085.067-.16c.101-.24.244-.403.62-.706.187-.15.382-.313.432-.36.108-.102.13-.092.207.093.048.115.057.237.056.7-.002.547-.004.566-.091.723-.132.24-.107.36.093.439.04.016.05.032.024.043-.07.03-.044.104.057.155.053.027.097.074.097.103 0 .029.019.053.042.053.06 0 .217.088.217.121 0 .016-.028.029-.062.029-.085 0-.165.038-.165.078 0 .019.029.034.063.034.073 0 .13.082.073.104-.062.023-.044.113.028.14.064.023.258.294.258.36 0 .018-.037.032-.081.032-.106 0-.103.027.022.176.08.094.09.123.049.123-.086 0-.066.083.076.312.073.117.117.212.1.212-.018 0-.037.035-.042.078l-.01.077-.072-.077c-.04-.043-.087-.078-.106-.078-.044 0-.043.086.002.138.066.077-.02.079-.158.003-.077-.042-.15-.064-.161-.05-.027.03.118.358.158.358.016 0 .028.017.028.038 0 .02-.05.037-.113.037-.13 0-.153.074-.04.132.048.025.07.065.064.122a.33.33 0 0 0 .07.186c.213.28.473.669.473.706 0 .024.05.158.113.3.062.141.113.294.113.339 0 .045.015.092.033.105.04.028.043.445.004.534a3.323 3.323 0 0 0-.069.177 3.888 3.888 0 0 1-.064.17 1.134 1.134 0 0 0-.048.177c-.027.143-.072.155-.113.03-.048-.145-.102-.156-.174-.037-.098.163-.41.502-.462.502-.025 0-.078.059-.119.13-.04.073-.09.124-.11.115-.058-.024-.13.06-.159.185-.018.08-.029.093-.038.047-.017-.08-.101-.086-.127-.01-.035.106-.106.059-.126-.084a2.395 2.395 0 0 0-.033-.187c-.022-.082-.078-.05-.098.056-.01.057-.025.124-.032.15-.017.066-.112.014-.112-.062a.184.184 0 0 0-.035-.104c-.025-.03-.025-.048 0-.066.042-.03.048-.208.007-.208-.015 0-.065.044-.11.096a.331.331 0 0 1-.167.106.317.317 0 0 0-.16.093c-.067.073-.08.076-.117.025-.056-.078-.077-.074-.187.045-.12.13-.144.235-.16.713-.011.29-.026.391-.061.407-.093.04-.02.361.153.68.048.09.112.258.141.374.03.117.067.241.083.277.077.167-.013.443-.107.334-.114-.132-.116.006-.006.34.047.14.077.278.067.308-.01.029-.066.081-.125.115-.15.089-.253.205-.253.289 0 .04-.028.08-.064.091-.076.023-.077.027-.028.119.02.038.028.099.016.134-.018.053-.03.057-.07.02-.08-.077-.098.063-.04.316.027.124.045.234.037.242-.007.01-.056-.03-.108-.088-.12-.132-.17-.102-.118.071a.706.706 0 0 0 .061.157.477.477 0 0 1 .023.177v.152l-.117-.14a.608.608 0 0 0-.143-.14c-.062 0-.062.172.001.544.01.057-.037.205-.065.205-.014 0-.035-.059-.047-.13-.03-.183-.105-.168-.148.027-.086.387-.173.529-.18.296-.007-.164-.047-.219-.1-.135-.052.082-.063 1.212-.013 1.318a.855.855 0 0 1 .05.17c.02.119.12.176.304.176a.26.26 0 0 1 .197.08c.1.108.26.523.26.672 0 .112-.005.117-.099.095-.11-.026-.316.065-.448.197-.068.068-.21.102-.35.082-.02-.003-.046.012-.058.033-.035.065-.588.046-.766-.027-.087-.035-.158-.078-.158-.093 0-.016-.017-.029-.039-.029-.021 0-.076-.041-.122-.092-.097-.108-.132-.09-.19.104-.032.103-.035.171-.011.243.018.056.042.147.052.204.011.058.07.17.133.249.131.167.213.526.142.624-.067.094-.233.159-.467.183-.125.013-.351.038-.503.057-.664.08-.704.083-.727.041z"/></svg>